<svg xmlns="http://www.w3.org/2000/svg" version="1.1" xmlns:xlink="http://www.w3.org/1999/xlink" width="512" height="512" x="0" y="0" viewBox="0 0 512 512" style="enable-background:new 0 0 512 512" xml:space="preserve" class=""><g><path fill="#231f20" d="M423.542 322.429c-9.898-15.212-23.803-28.7-41.325-40.09a176.223 176.223 0 0 0-6.217-3.856V144c0-13.901-3.58-27.296-10.64-39.815-6.477-11.485-15.587-21.679-27.078-30.296C316.023 57.194 286.802 48 256 48c-30.801 0-60.023 9.194-82.282 25.889-11.491 8.618-20.601 18.811-27.079 30.296C139.58 116.704 136 130.099 136 144v134.482a179.6 179.6 0 0 0-6.217 3.856c-17.523 11.39-31.427 24.878-41.326 40.09C77.537 339.211 72 357.235 72 376v16c0 10.349 3.691 25.738 21.273 40.288 10.257 8.487 24.274 15.877 41.662 21.962C167.637 465.696 210.632 472 256 472c45.367 0 88.362-6.304 121.065-17.75 17.388-6.085 31.404-13.475 41.661-21.962C436.31 417.738 440 402.349 440 392v-16c0-18.765-5.537-36.789-16.458-53.571z" opacity="1" data-original="#231f20"></path><path fill="#2b2829" d="M96 376c0-57.437 71.635-104 160-104s160 46.563 160 104v16c0 30.928-71.635 56-160 56S96 422.928 96 392z" opacity="1" data-original="#2b2829"></path><path fill="#302e2f" d="M256 272v176c88.365 0 160-25.072 160-56v-16c0-57.437-71.635-104-160-104z" opacity="1" data-original="#302e2f"></path><path fill="#ffffff" d="M302.223 373.333h3.111V392h-3.111z" opacity="1" data-original="#ffffff"></path><path fill="#c9cfd3" d="M299.111 373.333h3.111V392h-3.111z" opacity="1" data-original="#c9cfd3"></path><path fill="#c9cfd3" d="M299.111 376.444v5.814c.996.257 2.035.408 3.111.408s2.115-.151 3.111-.408v-5.814h-3.111z" opacity="1" data-original="#c9cfd3"></path><path fill="#c9cfd3" d="M296 336v37.333a6.223 6.223 0 0 0 6.223 6.223V336z" opacity="1" data-original="#c9cfd3"></path><path fill="#efefef" d="M308.445 336v37.333a6.223 6.223 0 0 1-6.223 6.223V336z" opacity="1" data-original="#efefef"></path><g fill="#c9cfd3"><path d="m302.223 360.889 6.222-6.222v-6.223l-6.222 6.223zM302.223 373.333l6.222-6.222v-6.222l-6.222 6.222zM302.223 348.444l6.222-6.221V336l-6.222 6.223z" fill="#c9cfd3" opacity="1" data-original="#c9cfd3"></path></g><path fill="#ffffff" d="M209.777 373.333h3.111V392h-3.111z" opacity="1" data-original="#ffffff"></path><path fill="#c9cfd3" d="M206.666 373.333h3.111V392h-3.111z" opacity="1" data-original="#c9cfd3"></path><path fill="#c9cfd3" d="M206.666 376.444v5.814c.996.257 2.035.408 3.111.408s2.115-.151 3.111-.408v-5.814h-3.111z" opacity="1" data-original="#c9cfd3"></path><path fill="#c9cfd3" d="M203.555 336v37.333a6.223 6.223 0 0 0 6.223 6.223V336z" opacity="1" data-original="#c9cfd3"></path><path fill="#efefef" d="M216 336v37.333a6.223 6.223 0 0 1-6.223 6.223V336z" opacity="1" data-original="#efefef"></path><g fill="#c9cfd3"><path d="m209.777 360.889 6.223-6.222v-6.223l-6.223 6.223zM209.777 373.333l6.223-6.222v-6.222l-6.223 6.222zM209.777 348.444l6.223-6.221V336l-6.223 6.223z" fill="#c9cfd3" opacity="1" data-original="#c9cfd3"></path></g><path fill="#302e2f" d="M256 72c-53.02 0-96 32.236-96 72v136c0 39.764 42.98 72 96 72s96-32.236 96-72V144c0-39.764-42.98-72-96-72z" opacity="1" data-original="#302e2f"></path><path fill="#231f20" d="M144 376v55.986c1.313.45 2.644.895 4 1.329V368c-2.209 0-4 3.582-4 8z" opacity="1" data-original="#231f20"></path><path fill="#302e2f" d="M148 368v65.315c1.313.421 2.647.833 4 1.238V376c0-4.418-1.791-8-4-8z" opacity="1" data-original="#302e2f"></path><path fill="#2b2829" d="M364 433.315V368c-2.209 0-4 3.582-4 8v58.554c1.353-.406 2.688-.818 4-1.239z" opacity="1" data-original="#2b2829"></path><path fill="#414042" d="M368 431.986V376c0-4.418-1.791-8-4-8v65.315a197.36 197.36 0 0 0 4-1.329zM256 72v94c48.602 0 88 29.55 88 66v42.333c0 36.45-39.398 66-88 66V352c53.02 0 96-32.236 96-72V144c0-39.764-42.98-72-96-72z" opacity="1" data-original="#414042"></path><path fill="#d7d9db" d="M256 184c-48.602 0-88 28.654-88 64v24c0 2.812.252 5.58.735 8.297.399.532.807 1.042 1.22 1.53l.062.075c.426.499.857.972 1.297 1.411l33.373 33.373C210.909 322.909 223.2 328 232 328h48c8.8 0 21.091-5.091 27.313-11.313l33.373-33.373c.439-.439.871-.912 1.297-1.411l.062-.075c.413-.488.82-.998 1.22-1.53.483-2.718.735-5.486.735-8.298v-24c0-35.346-39.399-64-88-64z" opacity="1" data-original="#d7d9db"></path><path fill="#f1f2f2" d="m256 200-16 64h32l-16 16v48h24c8.8 0 21.091-5.091 27.313-11.313l33.373-33.373c.439-.439.871-.912 1.297-1.411l.062-.075c.413-.488.82-.998 1.22-1.53.483-2.718.735-5.486.735-8.298v-23.999c0-26.51-39.399-48.001-88-48.001z" opacity="1" data-original="#f1f2f2"></path><path fill="#231f20" d="M248 288h16l-8 24zM237 218.5h-5c0-7.444-6.056-13.5-13.5-13.5s-13.5 6.056-13.5 13.5h-5c0-10.201 8.299-18.5 18.5-18.5s18.5 8.299 18.5 18.5zM312 218.5h-5c0-7.444-6.056-13.5-13.5-13.5s-13.5 6.056-13.5 13.5h-5c0-10.201 8.299-18.5 18.5-18.5s18.5 8.299 18.5 18.5z" opacity="1" data-original="#231f20"></path><circle cx="196" cy="252" r="12" fill="#e5cfcf" opacity="1" data-original="#e5cfcf"></circle><circle cx="316" cy="252" r="12" fill="#e5cfcf" opacity="1" data-original="#e5cfcf"></circle><g fill="#231f20"><path d="M297.789 279.105c-.984.493-2.689.895-3.789.895h-12c-1.1 0-2.402-.805-2.895-1.789L272 264h-16l13.781 20.672C271.002 286.502 273.8 288 276 288h16c2.2 0 5.272-1.272 6.828-2.828L312 272zM240 264l-7.105 14.211c-.493.984-1.795 1.789-2.895 1.789h-12c-1.1 0-2.805-.402-3.789-.895L200 272l13.172 13.172C214.728 286.728 217.8 288 220 288h16c2.2 0 4.998-1.498 6.219-3.328L256 264z" fill="#231f20" opacity="1" data-original="#231f20"></path></g></g></svg>